<mxfile host="app.diagrams.net" modified="2024-02-26T14:25:51.481Z" agent="Mozilla/5.0 (Windows NT 10.0; Win64; x64) AppleWebKit/537.36 (KHTML, like Gecko) Chrome/121.0.0.0 Safari/537.36 Edg/121.0.0.0" etag="iazU37VeH7AKZv8FUd2N" version="23.1.6" type="github">
  <diagram name="第 1 页" id="kogc-zGtckBzOPjeowD0">
    <mxGraphModel dx="844" dy="545" grid="1" gridSize="10" guides="1" tooltips="1" connect="1" arrows="1" fold="1" page="1" pageScale="1" pageWidth="827" pageHeight="1169" math="0" shadow="0">
      <root>
        <mxCell id="0" />
        <mxCell id="1" parent="0" />
        <mxCell id="J9PCniDtpA47kXZOu-ok-73" value="" style="edgeStyle=orthogonalEdgeStyle;rounded=0;orthogonalLoop=1;jettySize=auto;html=1;entryX=0;entryY=0.5;entryDx=0;entryDy=0;" edge="1" parent="1" source="J9PCniDtpA47kXZOu-ok-5" target="J9PCniDtpA47kXZOu-ok-8">
          <mxGeometry relative="1" as="geometry" />
        </mxCell>
        <mxCell id="J9PCniDtpA47kXZOu-ok-5" value="" style="rounded=1;whiteSpace=wrap;html=1;fillColor=#dae8fc;strokeColor=#6c8ebf;" vertex="1" parent="1">
          <mxGeometry x="20" y="270" width="80" height="60" as="geometry" />
        </mxCell>
        <mxCell id="J9PCniDtpA47kXZOu-ok-7" value="" style="shape=image;verticalLabelPosition=bottom;labelBackgroundColor=default;verticalAlign=top;aspect=fixed;imageAspect=0;image=data:image/png,iVBORw0KGgoAAAANSUhEUgAAACgAAAAhCAYAAACr8emlAAAFt0lEQVRYCc1XaUxUVxR+szEDM8CwKKCAssm+lAEUUUCwowwDMwMYa92XqpXWNi5taWwqsS1u1VZR48KiyCIirmn6o2n/1LTpj9o/TbekqWlFbYk7LiX6NecwTN9TZupgoPx4uefds7zvnnPud+8TBEHACH+GD6DcQwmlTuNuQoYPoF/2BEzYUPH/AfTPjoXSx9MpAP8p8Yh/70Wneiet1pdBlZ8OMqXCXWeJfer+VdDGhEjmxB/1z4lDXPULTvViW5EsQB2kR87nm0AgRQqJLFMpMaowBYJcJpkX2yftWAKvyCCn+kED9Bo/GgXf74LSx8tpcIVWg/TDr7nM8rMCVPnrELXG8jgGAZ7ho5B/YYdrgF5qpNQuH1KA6mA/pB6sHBxAfUY0Jn9WDUE2dCWmVkve/dLgAAZOS0buV1sed5a8P2uJBwfQnrGA3ERMPV8jASTeICQPO0CZQoG4jXMYFHHYUAGUyeXcOm5nkHgxzd60zgDKiHbsWR5sBqPXWeCdEMab1K0eJIApe1a4zKA+MxpaO/clblsEr4jRkjYghgixTeI537TxiH13tkRPrZG4dQH06ZEgKkvetUyql6kUUPlqkf/thyAyJgcKqgnxY5myQnO+6ZEDltjXEAXNGH+2Sa1dCc+wQJbJh/0MkYivmcdyRGUREjbPh0LjIbEh0NroEMgUciTXLpfoBKKOMRWTkf/dTvgkj0OwOQPpTa+DzlW9IQrZn1bDI9AH45YbkfPFJrYNWzANkavN0EYHI2qdBeGLC5lgrT1nMH7lTKhH+0JuX6w+MwYZbeuRsHUhbDiHrM63YGhZwwshQLSItEOVCFs4DZnH38CkT96BytcL1FIqPy2EkgfHUfJ3B0w3WzDzaiPyvtkG4++HMPH025jRVQ/ro9Mo/HkvTNeaMOOPOhTfbEHpw05YcZr15Ftyrx0WnOTR3HOMF5u6/2VktK1lQDachRVnWD/9l30w3WiG8eJBTP2yBpPObYDp2lEQDopJ3zH+dgBF3UdgvHgAgvVyA6xXGkCj7a/DKOs+wmPFnTaUXTsKa1cdj7arjeh/2KerHuU3mmG70sgPz12qh+1KA8qvN2PWvXbMunsMFbdbYblUB2tXPY/lN5s5DvnOftjJNvR925+H2Ybksu4mfqdRoJWXPupE8Z02XqUVZ2G2Z8Tc0wbTrRZYcAo0X3K/L1OcjQfHOePFt1tR2nuCV8/V6O2A+e4xPH/xAEp6T6D4Viu/kz9lvuDHPTyS39Tzm/lb5rvtnNXSRyc5kyW9HWxDLSFktK9H1qkqLl9EpQkJWxZg5uUGRK+18O3FdP0oYqrKkFb3Cpfe0LoWKXtXwHL/FMKXTOe+pDN67OwpMP56CPkXdiLmzTJ4J4bDLzsWE6oqUNLTgbjqOTA0r0HSR0sRUpaNYEsWBJkA/5x4FHU3IXH7ItYV/rQHBT/U8t2AKSfInAmFlxq5X/97jGkjgyFXq7iBqbl9ksJZJiD9u1MXGwq5SoGw+fkIKkrneaKIwIJkhw3ZyjUqUD+SHFNVjpQnz1pknaxC6Nw8EGXRJho1PYWvgPwt2j0kJO9e5qALVthpIshkgIe/Dgq1im8zj98HNaEBUOm1HCNx+2Ko7fTUH4N2c3BpJuvjP5jn4NV+PY1ETcSBRDXPNa5mW4d+3ApjH8CPlw4IUBc7lrOp8FRzcFe37oFOElpYYH4SfyPIbED8+3OlAER/lXTkUSapMg6ARMD0QuXpJ1yHUuRMK6RTxV2A4lh+E2MQt/HJk0RsQxWjvz/RXB/jDwfAp7nyB1smjnCApVkjG6DS29NxO7KXua/EaQdXgXakqPYSWaHz/M+fptR9K/l8dhbjaUo8gG8fwIhXTfAI8JaAEhvTrScwL8nlb2fEqqInaEYc45kAigMNlRyQl8h3Pzfj92XQTSenmXYVxzshFKFzc931HT6ArsC70I1sgP8Acn34xX4/3gcAAAAASUVORK5CYII=;" vertex="1" parent="1">
          <mxGeometry x="29.69" y="275" width="60.61" height="50" as="geometry" />
        </mxCell>
        <mxCell id="J9PCniDtpA47kXZOu-ok-81" value="" style="edgeStyle=orthogonalEdgeStyle;rounded=0;orthogonalLoop=1;jettySize=auto;html=1;" edge="1" parent="1" source="J9PCniDtpA47kXZOu-ok-8" target="J9PCniDtpA47kXZOu-ok-13">
          <mxGeometry relative="1" as="geometry" />
        </mxCell>
        <mxCell id="J9PCniDtpA47kXZOu-ok-8" value="" style="rounded=1;whiteSpace=wrap;html=1;fillColor=#dae8fc;strokeColor=#6c8ebf;" vertex="1" parent="1">
          <mxGeometry x="130" y="270" width="100" height="60" as="geometry" />
        </mxCell>
        <mxCell id="J9PCniDtpA47kXZOu-ok-9" value="Denoise Processing" style="text;html=1;align=center;verticalAlign=middle;whiteSpace=wrap;rounded=0;fillColor=#d5e8d4;strokeColor=#82b366;" vertex="1" parent="1">
          <mxGeometry x="150" y="285" width="60" height="30" as="geometry" />
        </mxCell>
        <mxCell id="J9PCniDtpA47kXZOu-ok-12" value="" style="rounded=1;whiteSpace=wrap;html=1;fillColor=#dae8fc;strokeColor=#6c8ebf;" vertex="1" parent="1">
          <mxGeometry x="250" y="270" width="86" height="60" as="geometry" />
        </mxCell>
        <mxCell id="J9PCniDtpA47kXZOu-ok-13" value="心音分割" style="text;html=1;align=center;verticalAlign=middle;whiteSpace=wrap;rounded=0;fillColor=#d5e8d4;strokeColor=#82b366;" vertex="1" parent="1">
          <mxGeometry x="263" y="285" width="60" height="30" as="geometry" />
        </mxCell>
        <mxCell id="J9PCniDtpA47kXZOu-ok-14" value="" style="rounded=1;whiteSpace=wrap;html=1;fillColor=#dae8fc;strokeColor=#6c8ebf;" vertex="1" parent="1">
          <mxGeometry x="354" y="210" width="120" height="170" as="geometry" />
        </mxCell>
        <mxCell id="J9PCniDtpA47kXZOu-ok-15" value="特征提取" style="text;html=1;align=center;verticalAlign=middle;whiteSpace=wrap;rounded=0;" vertex="1" parent="1">
          <mxGeometry x="362.5" y="350" width="90" height="35" as="geometry" />
        </mxCell>
        <mxCell id="J9PCniDtpA47kXZOu-ok-44" value="&lt;br style=&quot;border-color: var(--border-color);&quot;&gt;&lt;span style=&quot;border-color: var(--border-color);&quot;&gt;logmel&lt;/span&gt;&lt;div style=&quot;border-color: var(--border-color);&quot;&gt;&lt;br style=&quot;border-color: var(--border-color);&quot;&gt;&lt;/div&gt;" style="rounded=0;whiteSpace=wrap;html=1;" vertex="1" parent="1">
          <mxGeometry x="375" y="230" width="65" height="30" as="geometry" />
        </mxCell>
        <mxCell id="J9PCniDtpA47kXZOu-ok-49" value="&lt;br style=&quot;border-color: var(--border-color);&quot;&gt;&lt;div style=&quot;text-align: left;&quot;&gt;&lt;br&gt;&lt;/div&gt;" style="rounded=0;whiteSpace=wrap;html=1;" vertex="1" parent="1">
          <mxGeometry x="375" y="270" width="65" height="30" as="geometry" />
        </mxCell>
        <mxCell id="J9PCniDtpA47kXZOu-ok-52" value="深度特征" style="rounded=0;whiteSpace=wrap;html=1;" vertex="1" parent="1">
          <mxGeometry x="375" y="310" width="65" height="30" as="geometry" />
        </mxCell>
        <mxCell id="J9PCniDtpA47kXZOu-ok-54" value="T-F特征" style="text;html=1;align=center;verticalAlign=middle;whiteSpace=wrap;rounded=0;" vertex="1" parent="1">
          <mxGeometry x="378" y="270" width="60" height="30" as="geometry" />
        </mxCell>
        <mxCell id="J9PCniDtpA47kXZOu-ok-59" value="" style="shape=curlyBracket;whiteSpace=wrap;html=1;rounded=1;flipH=1;labelPosition=right;verticalLabelPosition=middle;align=left;verticalAlign=middle;" vertex="1" parent="1">
          <mxGeometry x="440" y="225" width="20" height="120" as="geometry" />
        </mxCell>
        <mxCell id="J9PCniDtpA47kXZOu-ok-75" value="" style="edgeStyle=orthogonalEdgeStyle;rounded=0;orthogonalLoop=1;jettySize=auto;html=1;" edge="1" parent="1" source="J9PCniDtpA47kXZOu-ok-63">
          <mxGeometry relative="1" as="geometry">
            <mxPoint x="700" y="200" as="targetPoint" />
          </mxGeometry>
        </mxCell>
        <mxCell id="J9PCniDtpA47kXZOu-ok-76" value="分类概率" style="edgeLabel;html=1;align=center;verticalAlign=middle;resizable=0;points=[];" vertex="1" connectable="0" parent="J9PCniDtpA47kXZOu-ok-75">
          <mxGeometry x="-0.25" y="-2" relative="1" as="geometry">
            <mxPoint x="70" y="-2" as="offset" />
          </mxGeometry>
        </mxCell>
        <mxCell id="J9PCniDtpA47kXZOu-ok-63" value="" style="html=1;whiteSpace=wrap;shape=isoCube2;backgroundOutline=1;isoAngle=15;fillColor=#f8cecc;strokeColor=#b85450;" vertex="1" parent="1">
          <mxGeometry x="530" y="150" width="90" height="100" as="geometry" />
        </mxCell>
        <mxCell id="J9PCniDtpA47kXZOu-ok-64" value="model" style="text;html=1;align=center;verticalAlign=middle;whiteSpace=wrap;rounded=0;" vertex="1" parent="1">
          <mxGeometry x="545" y="160" width="60" height="30" as="geometry" />
        </mxCell>
        <mxCell id="J9PCniDtpA47kXZOu-ok-77" style="edgeStyle=orthogonalEdgeStyle;rounded=0;orthogonalLoop=1;jettySize=auto;html=1;" edge="1" parent="1" source="J9PCniDtpA47kXZOu-ok-67">
          <mxGeometry relative="1" as="geometry">
            <mxPoint x="680" y="400" as="targetPoint" />
          </mxGeometry>
        </mxCell>
        <mxCell id="J9PCniDtpA47kXZOu-ok-79" value="狭窄程度回归预测" style="edgeLabel;html=1;align=center;verticalAlign=middle;resizable=0;points=[];" vertex="1" connectable="0" parent="J9PCniDtpA47kXZOu-ok-77">
          <mxGeometry x="-0.0083" y="-1" relative="1" as="geometry">
            <mxPoint x="71" y="-1" as="offset" />
          </mxGeometry>
        </mxCell>
        <mxCell id="J9PCniDtpA47kXZOu-ok-67" value="" style="html=1;whiteSpace=wrap;shape=isoCube2;backgroundOutline=1;isoAngle=15;fillColor=#f8cecc;strokeColor=#b85450;" vertex="1" parent="1">
          <mxGeometry x="530" y="350" width="90" height="100" as="geometry" />
        </mxCell>
        <mxCell id="J9PCniDtpA47kXZOu-ok-68" value="model" style="text;html=1;align=center;verticalAlign=middle;whiteSpace=wrap;rounded=0;" vertex="1" parent="1">
          <mxGeometry x="545" y="360" width="60" height="30" as="geometry" />
        </mxCell>
        <mxCell id="J9PCniDtpA47kXZOu-ok-69" value="距离度量损失函数" style="rounded=1;whiteSpace=wrap;html=1;" vertex="1" parent="1">
          <mxGeometry x="414" y="90" width="120" height="60" as="geometry" />
        </mxCell>
        <mxCell id="J9PCniDtpA47kXZOu-ok-70" value="分段约束损失函数&lt;br&gt;标签平滑技术(lds)" style="rounded=1;whiteSpace=wrap;html=1;" vertex="1" parent="1">
          <mxGeometry x="400" y="450" width="120" height="60" as="geometry" />
        </mxCell>
      </root>
    </mxGraphModel>
  </diagram>
</mxfile>
